<?xml version="1.0" encoding="UTF-8" standalone="no"?><svg xmlns="http://www.w3.org/2000/svg" xmlns:xlink="http://www.w3.org/1999/xlink" contentScriptType="application/ecmascript" contentStyleType="text/css" height="748px" preserveAspectRatio="none" style="width:739px;height:748px;" version="1.1" viewBox="0 0 739 748" width="739px" zoomAndPan="magnify"><defs><filter height="300%" id="f1wfaw16p59dmb" width="300%" x="-1" y="-1"><feGaussianBlur result="blurOut" stdDeviation="2.0"/><feColorMatrix in="blurOut" result="blurOut2" type="matrix" values="0 0 0 0 0 0 0 0 0 0 0 0 0 0 0 0 0 0 .4 0"/><feOffset dx="4.0" dy="4.0" in="blurOut2" result="blurOut3"/><feBlend in="SourceGraphic" in2="blurOut3" mode="normal"/></filter></defs><g><text fill="#888888" font-family="sans-serif" font-size="10" lengthAdjust="spacingAndGlyphs" textLength="142" x="579" y="9.2822">AutomatedCar class diagram</text><!--MD5=[43f25ab9a61af9cd9cb4ebafd4eb0ae2]
class ReactiveObject--><rect fill="#FEFECE" filter="url(#f1wfaw16p59dmb)" height="48" id="ReactiveObject" style="stroke: #A80036; stroke-width: 1.5;" width="124" x="152.5" y="681.6406"/><ellipse cx="167.5" cy="697.6406" fill="#B4A7E5" rx="11" ry="11" style="stroke: #A80036; stroke-width: 1.0;"/><path d="M171,704.1406 L163.875,704.1406 L163.875,702.4531 L166.3125,702.2813 L166.3125,693.1719 L163.875,693.0156 L163.875,691.3125 L171,691.3125 L171,693.0156 L168.5625,693.1719 L168.5625,702.2813 L171,702.4531 L171,704.1406 Z "/><text fill="#000000" font-family="sans-serif" font-size="12" font-style="italic" lengthAdjust="spacingAndGlyphs" textLength="92" x="181.5" y="701.7949">ReactiveObject</text><line style="stroke: #A80036; stroke-width: 1.5;" x1="153.5" x2="275.5" y1="713.6406" y2="713.6406"/><line style="stroke: #A80036; stroke-width: 1.5;" x1="153.5" x2="275.5" y1="721.6406" y2="721.6406"/><path d="M312,685.6406 L312,701.6406 L276.75,705.6406 L312,709.6406 L312,725.9063 A0,0 0 0 0 312,725.9063 L727,725.9063 A0,0 0 0 0 727,725.9063 L727,695.6406 L717,685.6406 L312,685.6406 A0,0 0 0 0 312,685.6406 " fill="#FBFB77" filter="url(#f1wfaw16p59dmb)" style="stroke: #A80036; stroke-width: 1.0;"/><path d="M717,685.6406 L717,695.6406 L727,695.6406 L717,685.6406 " fill="#FBFB77" style="stroke: #A80036; stroke-width: 1.0;"/><text fill="#000000" font-family="sans-serif" font-size="13" lengthAdjust="spacingAndGlyphs" textLength="352" x="318" y="702.7075">This is required to update the View in the MVVM model.</text><text fill="#000000" font-family="sans-serif" font-size="13" lengthAdjust="spacingAndGlyphs" textLength="394" x="318" y="717.8403">RaiseAndSetIfChanged() method must be used in the setters.</text><!--MD5=[1b1562314ef50edf921bad0cd204186a]
class World--><rect fill="#FEFECE" filter="url(#f1wfaw16p59dmb)" height="194.7891" id="World" style="stroke: #A80036; stroke-width: 1.5;" width="215" x="7" y="190.6406"/><ellipse cx="75.75" cy="209.6094" fill="#FF7700" rx="11" ry="11" style="stroke: #A80036; stroke-width: 1.0;"/><path d="M71.4219,215.0781 L71.4219,212.8594 Q73.5781,213.75 75.2031,213.75 Q77.7656,213.75 77.7656,212.1094 Q77.7656,211.4063 77.2656,211.0156 Q76.7656,210.6094 75.0469,210 Q73.2188,209.3594 72.3906,208.4375 Q71.5781,207.5 71.5781,206.0313 Q71.5781,204.4219 72.7656,203.5156 Q73.9531,202.6094 75.9219,202.6094 Q77.875,202.6094 79.8125,203.4219 L79.0313,205.4219 Q77.1719,204.6563 75.8438,204.6563 Q73.7656,204.6563 73.7656,206.0469 Q73.7656,206.75 74.2188,207.1875 Q74.6875,207.625 76.3125,208.1875 Q78.4531,208.9531 79.2031,209.8125 Q79.9531,210.6719 79.9531,212.0156 Q79.9531,213.7813 78.6875,214.7813 Q77.4375,215.7813 75.2031,215.7813 Q72.9219,215.7813 71.4219,215.0781 Z "/><text fill="#000000" font-family="sans-serif" font-size="12" font-style="italic" lengthAdjust="spacingAndGlyphs" textLength="73" x="94.25" y="206.7793">«Singleton»</text><text fill="#000000" font-family="sans-serif" font-size="12" lengthAdjust="spacingAndGlyphs" textLength="35" x="113.25" y="220.748">World</text><line style="stroke: #A80036; stroke-width: 1.5;" x1="8" x2="221" y1="228.5781" y2="228.5781"/><rect fill="none" height="6" style="stroke: #C82930; stroke-width: 1.0;" width="6" x="15" y="236.5781"/><text fill="#000000" font-family="sans-serif" font-size="11" lengthAdjust="spacingAndGlyphs" textLength="48" x="27" y="242.7886">int width</text><rect fill="none" height="6" style="stroke: #C82930; stroke-width: 1.0;" width="6" x="15" y="249.3828"/><text fill="#000000" font-family="sans-serif" font-size="11" lengthAdjust="spacingAndGlyphs" textLength="53" x="27" y="255.5933">int height</text><rect fill="none" height="6" style="stroke: #C82930; stroke-width: 1.0;" width="6" x="15" y="262.1875"/><text fill="#000000" font-family="sans-serif" font-size="11" lengthAdjust="spacingAndGlyphs" textLength="153" x="27" y="268.3979">WorldObject[] worldObjects</text><rect fill="none" height="6" style="stroke: #C82930; stroke-width: 1.0;" width="6" x="15" y="274.9922"/><text fill="#000000" font-family="sans-serif" font-size="11" lengthAdjust="spacingAndGlyphs" textLength="161" x="27" y="281.2026">AutomatedCar controlledCar</text><line style="stroke: #A80036; stroke-width: 1.5;" x1="8" x2="221" y1="287.7969" y2="287.7969"/><ellipse cx="18" cy="298.7969" fill="#84BE84" rx="3" ry="3" style="stroke: #038048; stroke-width: 1.0;"/><text fill="#000000" font-family="sans-serif" font-size="11" lengthAdjust="spacingAndGlyphs" textLength="74" x="27" y="302.0073">int getWidth()</text><ellipse cx="18" cy="311.6016" fill="#84BE84" rx="3" ry="3" style="stroke: #038048; stroke-width: 1.0;"/><text fill="#000000" font-family="sans-serif" font-size="11" lengthAdjust="spacingAndGlyphs" textLength="83" x="27" y="314.812">void setWidth()</text><ellipse cx="18" cy="324.4063" fill="#84BE84" rx="3" ry="3" style="stroke: #038048; stroke-width: 1.0;"/><text fill="#000000" font-family="sans-serif" font-size="11" lengthAdjust="spacingAndGlyphs" textLength="80" x="27" y="327.6167">int getHeight()</text><ellipse cx="18" cy="337.2109" fill="#84BE84" rx="3" ry="3" style="stroke: #038048; stroke-width: 1.0;"/><text fill="#000000" font-family="sans-serif" font-size="11" lengthAdjust="spacingAndGlyphs" textLength="89" x="27" y="340.4214">void setHeight()</text><ellipse cx="18" cy="350.0156" fill="#84BE84" rx="3" ry="3" style="stroke: #038048; stroke-width: 1.0;"/><text fill="#000000" font-family="sans-serif" font-size="11" lengthAdjust="spacingAndGlyphs" textLength="92" x="27" y="353.2261">void addObject()</text><ellipse cx="18" cy="362.8203" fill="#84BE84" rx="3" ry="3" style="stroke: #038048; stroke-width: 1.0;"/><text fill="#000000" font-family="sans-serif" font-size="11" lengthAdjust="spacingAndGlyphs" textLength="189" x="27" y="366.0308">AutomatedCar getControlledCar()</text><ellipse cx="18" cy="375.625" fill="#84BE84" rx="3" ry="3" style="stroke: #038048; stroke-width: 1.0;"/><text fill="#000000" font-family="sans-serif" font-size="11" lengthAdjust="spacingAndGlyphs" textLength="131" x="27" y="378.8354">void setControlledCar()</text><!--MD5=[c413ff7c8ebacda5f02def9f17877291]
class WorldObject--><rect fill="#FEFECE" filter="url(#f1wfaw16p59dmb)" height="176.0469" id="WorldObject" style="stroke: #A80036; stroke-width: 1.5;" width="140" x="144.5" y="445.6406"/><ellipse cx="174.35" cy="461.6406" fill="#A9DCDF" rx="11" ry="11" style="stroke: #A80036; stroke-width: 1.0;"/><path d="M177.2719,467.1406 L176.0844,463.375 L172.5063,463.375 L171.2875,467.1406 L169.0063,467.1406 L173.225,454.2656 L175.35,454.2656 L179.5844,467.1406 L177.2719,467.1406 Z M175.4281,461.3281 L174.4594,458.25 Q174.1313,457.2188 174.2875,457.125 Q174.4438,457.1719 174.225,457.9063 L173.1625,461.3281 L175.4281,461.3281 Z "/><text fill="#000000" font-family="sans-serif" font-size="12" font-style="italic" lengthAdjust="spacingAndGlyphs" textLength="75" x="191.65" y="465.7949">WorldObject</text><line style="stroke: #A80036; stroke-width: 1.5;" x1="145.5" x2="283.5" y1="477.6406" y2="477.6406"/><rect fill="none" height="6" style="stroke: #C82930; stroke-width: 1.0;" width="6" x="152.5" y="485.6406"/><text fill="#000000" font-family="sans-serif" font-size="11" lengthAdjust="spacingAndGlyphs" textLength="24" x="164.5" y="491.8511">int x</text><rect fill="none" height="6" style="stroke: #C82930; stroke-width: 1.0;" width="6" x="152.5" y="498.4453"/><text fill="#000000" font-family="sans-serif" font-size="11" lengthAdjust="spacingAndGlyphs" textLength="24" x="164.5" y="504.6558">int y</text><rect fill="none" height="6" style="stroke: #C82930; stroke-width: 1.0;" width="6" x="152.5" y="511.25"/><text fill="#000000" font-family="sans-serif" font-size="11" lengthAdjust="spacingAndGlyphs" textLength="53" x="164.5" y="517.4604">int zIndex</text><rect fill="none" height="6" style="stroke: #C82930; stroke-width: 1.0;" width="6" x="152.5" y="524.0547"/><text fill="#000000" font-family="sans-serif" font-size="11" lengthAdjust="spacingAndGlyphs" textLength="86" x="164.5" y="530.2651">string filename</text><line style="stroke: #A80036; stroke-width: 1.5;" x1="145.5" x2="283.5" y1="536.8594" y2="536.8594"/><ellipse cx="155.5" cy="547.8594" fill="#84BE84" rx="3" ry="3" style="stroke: #038048; stroke-width: 1.0;"/><text fill="#000000" font-family="sans-serif" font-size="11" lengthAdjust="spacingAndGlyphs" textLength="51" x="164.5" y="551.0698">int getX()</text><ellipse cx="155.5" cy="560.6641" fill="#84BE84" rx="3" ry="3" style="stroke: #038048; stroke-width: 1.0;"/><text fill="#000000" font-family="sans-serif" font-size="11" lengthAdjust="spacingAndGlyphs" textLength="60" x="164.5" y="563.8745">void setX()</text><ellipse cx="155.5" cy="573.4688" fill="#84BE84" rx="3" ry="3" style="stroke: #038048; stroke-width: 1.0;"/><text fill="#000000" font-family="sans-serif" font-size="11" lengthAdjust="spacingAndGlyphs" textLength="51" x="164.5" y="576.6792">int getY()</text><ellipse cx="155.5" cy="586.2734" fill="#84BE84" rx="3" ry="3" style="stroke: #038048; stroke-width: 1.0;"/><text fill="#000000" font-family="sans-serif" font-size="11" lengthAdjust="spacingAndGlyphs" textLength="60" x="164.5" y="589.4839">void setY()</text><ellipse cx="155.5" cy="599.0781" fill="#84BE84" rx="3" ry="3" style="stroke: #038048; stroke-width: 1.0;"/><text fill="#000000" font-family="sans-serif" font-size="11" lengthAdjust="spacingAndGlyphs" textLength="114" x="164.5" y="602.2886">string getFilename()</text><ellipse cx="155.5" cy="611.8828" fill="#84BE84" rx="3" ry="3" style="stroke: #038048; stroke-width: 1.0;"/><text fill="#000000" font-family="sans-serif" font-size="11" lengthAdjust="spacingAndGlyphs" textLength="104" x="164.5" y="615.0933">void setFilename()</text><!--MD5=[3f0ef310aaa84a542276992c5216544d]
class Car--><rect fill="#FEFECE" filter="url(#f1wfaw16p59dmb)" height="86.4141" id="Car" style="stroke: #A80036; stroke-width: 1.5;" width="115" x="257" y="245.1406"/><ellipse cx="299.9" cy="261.1406" fill="#ADD1B2" rx="11" ry="11" style="stroke: #A80036; stroke-width: 1.0;"/><path d="M303.4156,265.1719 L303.4156,267.2031 Q301.9313,267.8125 300.1031,267.8125 Q297.3844,267.8125 295.9313,266.0781 Q294.4781,264.3281 294.4781,261.2188 Q294.4781,258.2188 296.0563,256.4375 Q297.6344,254.6406 300.3531,254.6406 Q302.2594,254.6406 303.9938,255.5625 L303.0406,257.4688 Q301.5406,256.6875 300.3531,256.6875 Q298.7438,256.6875 297.7594,257.9063 Q296.7906,259.1094 296.7906,261.2344 Q296.7906,263.4844 297.6969,264.625 Q298.6188,265.7656 300.3531,265.7656 Q301.3844,265.7656 303.4156,265.1719 Z "/><text fill="#000000" font-family="sans-serif" font-size="12" lengthAdjust="spacingAndGlyphs" textLength="21" x="320.1" y="265.2949">Car</text><line style="stroke: #A80036; stroke-width: 1.5;" x1="258" x2="371" y1="277.1406" y2="277.1406"/><rect fill="none" height="6" style="stroke: #C82930; stroke-width: 1.0;" width="6" x="265" y="285.1406"/><text fill="#000000" font-family="sans-serif" font-size="11" lengthAdjust="spacingAndGlyphs" textLength="53" x="277" y="291.3511">int speed</text><line style="stroke: #A80036; stroke-width: 1.5;" x1="258" x2="371" y1="297.9453" y2="297.9453"/><ellipse cx="268" cy="308.9453" fill="#84BE84" rx="3" ry="3" style="stroke: #038048; stroke-width: 1.0;"/><text fill="#000000" font-family="sans-serif" font-size="11" lengthAdjust="spacingAndGlyphs" textLength="80" x="277" y="312.1558">int getSpeed()</text><ellipse cx="268" cy="321.75" fill="#84BE84" rx="3" ry="3" style="stroke: #038048; stroke-width: 1.0;"/><text fill="#000000" font-family="sans-serif" font-size="11" lengthAdjust="spacingAndGlyphs" textLength="89" x="277" y="324.9604">void setSpeed()</text><!--MD5=[7b74c2e46fdfa161b2a78936e4a65f73]
class AutomatedCar--><rect fill="#FEFECE" filter="url(#f1wfaw16p59dmb)" height="112.0234" id="AutomatedCar" style="stroke: #A80036; stroke-width: 1.5;" width="266" x="181.5" y="18.6406"/><ellipse cx="265.25" cy="34.6406" fill="#ADD1B2" rx="11" ry="11" style="stroke: #A80036; stroke-width: 1.0;"/><path d="M268.7656,38.6719 L268.7656,40.7031 Q267.2813,41.3125 265.4531,41.3125 Q262.7344,41.3125 261.2813,39.5781 Q259.8281,37.8281 259.8281,34.7188 Q259.8281,31.7188 261.4063,29.9375 Q262.9844,28.1406 265.7031,28.1406 Q267.6094,28.1406 269.3438,29.0625 L268.3906,30.9688 Q266.8906,30.1875 265.7031,30.1875 Q264.0938,30.1875 263.1094,31.4063 Q262.1406,32.6094 262.1406,34.7344 Q262.1406,36.9844 263.0469,38.125 Q263.9688,39.2656 265.7031,39.2656 Q266.7344,39.2656 268.7656,38.6719 Z "/><text fill="#000000" font-family="sans-serif" font-size="12" lengthAdjust="spacingAndGlyphs" textLength="90" x="285.75" y="38.7949">AutomatedCar</text><line style="stroke: #A80036; stroke-width: 1.5;" x1="182.5" x2="446.5" y1="50.6406" y2="50.6406"/><rect fill="none" height="6" style="stroke: #C82930; stroke-width: 1.0;" width="6" x="189.5" y="58.6406"/><text fill="#000000" font-family="sans-serif" font-size="11" lengthAdjust="spacingAndGlyphs" textLength="213" x="201.5" y="64.8511">VirtualFunctionBus virtualFunctionBus</text><rect fill="none" height="6" style="stroke: #C82930; stroke-width: 1.0;" width="6" x="189.5" y="71.4453"/><text fill="#000000" font-family="sans-serif" font-size="11" lengthAdjust="spacingAndGlyphs" textLength="171" x="201.5" y="77.6558">DummySensor dummySensor</text><line style="stroke: #A80036; stroke-width: 1.5;" x1="182.5" x2="446.5" y1="84.25" y2="84.25"/><ellipse cx="192.5" cy="95.25" fill="#84BE84" rx="3" ry="3" style="stroke: #038048; stroke-width: 1.0;"/><text fill="#000000" font-family="sans-serif" font-size="11" lengthAdjust="spacingAndGlyphs" textLength="240" x="201.5" y="98.4604">VirtualFunctionBus getVirtualFunctionBus()</text><ellipse cx="192.5" cy="108.0547" fill="#84BE84" rx="3" ry="3" style="stroke: #038048; stroke-width: 1.0;"/><text fill="#000000" font-family="sans-serif" font-size="11" lengthAdjust="spacingAndGlyphs" textLength="63" x="201.5" y="111.2651">void Start()</text><ellipse cx="192.5" cy="120.8594" fill="#84BE84" rx="3" ry="3" style="stroke: #038048; stroke-width: 1.0;"/><text fill="#000000" font-family="sans-serif" font-size="11" lengthAdjust="spacingAndGlyphs" textLength="61" x="201.5" y="124.0698">void Stop()</text><!--MD5=[00c17cc60de1cd86eb88029b082518c8]
reverse link AutomatedCar to Car--><path d="M314.5,150.7706 C314.5,182.4606 314.5,218.1706 314.5,245.0906 " fill="none" id="AutomatedCar&lt;-Car" style="stroke: #A80036; stroke-width: 1.0;"/><polygon fill="none" points="307.5,150.6606,314.5,130.6606,321.5,150.6606,307.5,150.6606" style="stroke: #A80036; stroke-width: 1.0;"/><!--MD5=[99cb0a8044df6b3725b95bb4627bf8e0]
reverse link Car to WorldObject--><path d="M289.45,350.1306 C277.62,378.9506 263.28,413.8706 250.32,445.4206 " fill="none" id="Car&lt;-WorldObject" style="stroke: #A80036; stroke-width: 1.0;"/><polygon fill="none" points="283.12,347.1206,297.2,331.2806,296.07,352.4406,283.12,347.1206" style="stroke: #A80036; stroke-width: 1.0;"/><!--MD5=[5f65b65a6b67798629d2a5b8c3e8dde0]
reverse link WorldObject to ReactiveObject--><path d="M214.5,642.4806 C214.5,657.0906 214.5,670.7306 214.5,681.4906 " fill="none" id="WorldObject&lt;-ReactiveObject" style="stroke: #A80036; stroke-width: 1.0;"/><polygon fill="none" points="207.5,642.1306,214.5,622.1306,221.5,642.1306,207.5,642.1306" style="stroke: #A80036; stroke-width: 1.0;"/><!--MD5=[7cd861afdac4c63e9d128f9821dbff0f]
reverse link World to WorldObject--><path d="M159.12,397.8006 C165.65,413.6806 172.29,429.8706 178.61,445.2506 " fill="none" id="World&lt;-WorldObject" style="stroke: #A80036; stroke-width: 1.0;"/><polygon fill="#A80036" points="154.17,385.7306,152.7537,392.8013,158.7357,396.8281,160.152,389.7575,154.17,385.7306" style="stroke: #A80036; stroke-width: 1.0;"/><text fill="#000000" font-family="sans-serif" font-size="13" lengthAdjust="spacingAndGlyphs" textLength="36" x="138.3156" y="434.6797">many</text><!--MD5=[11e1665be8121fbea017dcbfa1e571af]
@startuml
    interface ReactiveObject {
    }
    note right: This is required to update the View in the MVVM model.\nRaiseAndSetIfChanged() method must be used in the setters.

    class World << (S, #FF7700) Singleton >> {
        - int width
        - int height
        - WorldObject[] worldObjects
        - AutomatedCar controlledCar
        + int getWidth()
        + void setWidth()
        + int getHeight()
        + void setHeight()
        + void addObject()
        + AutomatedCar getControlledCar()
        + void setControlledCar()
    }

    abstract class WorldObject {
        - int x
        - int y
        - int zIndex
        - string filename
        + int getX()
        + void setX()
        + int getY()
        + void setY()
        + string getFilename()
        + void setFilename()
    }

    class Car {
        - int speed
        + int getSpeed()
        + void setSpeed()
    }

    class AutomatedCar {
        - VirtualFunctionBus virtualFunctionBus
        - DummySensor dummySensor
        + VirtualFunctionBus getVirtualFunctionBus()
        + void Start()
        + void Stop()
    }

    AutomatedCar <|- - Car
    Car <|- - WorldObject
    WorldObject <|- - ReactiveObject
    World *- - "many" WorldObject

header
AutomatedCar class diagram
endheader
@enduml

PlantUML version 1.2020.15(Sun Jun 28 13:39:45 CEST 2020)
(GPL source distribution)
Java Runtime: OpenJDK Runtime Environment
JVM: OpenJDK 64-Bit Server VM
Default Encoding: UTF-8
Language: hu
Country: HU
--></g></svg>