<?xml version="1.0" encoding="UTF-8" standalone="no"?><svg xmlns="http://www.w3.org/2000/svg" xmlns:xlink="http://www.w3.org/1999/xlink" contentScriptType="application/ecmascript" contentStyleType="text/css" height="481px" preserveAspectRatio="none" style="width:819px;height:481px;" version="1.1" viewBox="0 0 819 481" width="819px" zoomAndPan="magnify"><defs><filter height="300%" id="f1k3d776513ec9" width="300%" x="-1" y="-1"><feGaussianBlur result="blurOut" stdDeviation="2.0"/><feColorMatrix in="blurOut" result="blurOut2" type="matrix" values="0 0 0 0 0 0 0 0 0 0 0 0 0 0 0 0 0 0 .4 0"/><feOffset dx="4.0" dy="4.0" in="blurOut2" result="blurOut3"/><feBlend in="SourceGraphic" in2="blurOut3" mode="normal"/></filter></defs><g><text fill="#888888" font-family="sans-serif" font-size="10" lengthAdjust="spacingAndGlyphs" textLength="143" x="658.5" y="9.2822">DummySensor class diagram</text><!--MD5=[5f656bb52523b0b09494e8fdfb622f57]
class GameBase--><rect fill="#FEFECE" filter="url(#f1k3d776513ec9)" height="137.6328" id="GameBase" style="stroke: #A80036; stroke-width: 1.5;" width="160" x="9" y="190.6406"/><ellipse cx="51.9" cy="206.6406" fill="#A9DCDF" rx="11" ry="11" style="stroke: #A80036; stroke-width: 1.0;"/><path d="M54.8219,212.1406 L53.6344,208.375 L50.0563,208.375 L48.8375,212.1406 L46.5563,212.1406 L50.775,199.2656 L52.9,199.2656 L57.1344,212.1406 L54.8219,212.1406 Z M52.9781,206.3281 L52.0094,203.25 Q51.6813,202.2188 51.8375,202.125 Q51.9938,202.1719 51.775,202.9063 L50.7125,206.3281 L52.9781,206.3281 Z "/><text fill="#000000" font-family="sans-serif" font-size="12" font-style="italic" lengthAdjust="spacingAndGlyphs" textLength="66" x="72.1" y="210.7949">GameBase</text><line style="stroke: #A80036; stroke-width: 1.5;" x1="10" x2="168" y1="222.6406" y2="222.6406"/><ellipse cx="20" cy="233.6406" fill="none" rx="3" ry="3" style="stroke: #038048; stroke-width: 1.0;"/><text fill="#000000" font-family="sans-serif" font-size="11" lengthAdjust="spacingAndGlyphs" textLength="108" x="29" y="236.8511">int TicksPerSecond</text><ellipse cx="20" cy="246.4453" fill="none" rx="3" ry="3" style="stroke: #038048; stroke-width: 1.0;"/><text fill="#000000" font-family="sans-serif" font-size="11" lengthAdjust="spacingAndGlyphs" textLength="93" x="29" y="249.6558">long CurrentTick</text><rect fill="none" height="6" style="stroke: #C82930; stroke-width: 1.0;" width="6" x="17" y="256.25"/><text fill="#000000" font-family="sans-serif" font-size="11" lengthAdjust="spacingAndGlyphs" textLength="134" x="29" y="262.4604">DispatcherTimer _timer</text><line style="stroke: #A80036; stroke-width: 1.5;" x1="10" x2="168" y1="269.0547" y2="269.0547"/><text fill="#000000" font-family="sans-serif" font-size="11" lengthAdjust="spacingAndGlyphs" textLength="72" x="29" y="283.2651">void DoTick()</text><polygon fill="#FFFF44" points="20,287.8594,24,291.8594,20,295.8594,16,291.8594" style="stroke: #B38D22; stroke-width: 1.0;"/><text fill="#000000" font-family="sans-serif" font-size="11" font-style="italic" lengthAdjust="spacingAndGlyphs" textLength="58" x="29" y="296.0698">void Tick()</text><ellipse cx="20" cy="305.6641" fill="#84BE84" rx="3" ry="3" style="stroke: #038048; stroke-width: 1.0;"/><text fill="#000000" font-family="sans-serif" font-size="11" lengthAdjust="spacingAndGlyphs" textLength="63" x="29" y="308.8745">void Start()</text><ellipse cx="20" cy="318.4688" fill="#84BE84" rx="3" ry="3" style="stroke: #038048; stroke-width: 1.0;"/><text fill="#000000" font-family="sans-serif" font-size="11" lengthAdjust="spacingAndGlyphs" textLength="61" x="29" y="321.6792">void Stop()</text><!--MD5=[7fd4caca6e10e92ca6c4b401ff1a7409]
class VirtualFunctionBus--><rect fill="#FEFECE" filter="url(#f1k3d776513ec9)" height="112.0234" id="VirtualFunctionBus" style="stroke: #A80036; stroke-width: 1.5;" width="346" x="49" y="18.6406"/><ellipse cx="159.25" cy="34.6406" fill="#ADD1B2" rx="11" ry="11" style="stroke: #A80036; stroke-width: 1.0;"/><path d="M162.7656,38.6719 L162.7656,40.7031 Q161.2813,41.3125 159.4531,41.3125 Q156.7344,41.3125 155.2813,39.5781 Q153.8281,37.8281 153.8281,34.7188 Q153.8281,31.7188 155.4063,29.9375 Q156.9844,28.1406 159.7031,28.1406 Q161.6094,28.1406 163.3438,29.0625 L162.3906,30.9688 Q160.8906,30.1875 159.7031,30.1875 Q158.0938,30.1875 157.1094,31.4063 Q156.1406,32.6094 156.1406,34.7344 Q156.1406,36.9844 157.0469,38.125 Q157.9688,39.2656 159.7031,39.2656 Q160.7344,39.2656 162.7656,38.6719 Z "/><text fill="#000000" font-family="sans-serif" font-size="12" lengthAdjust="spacingAndGlyphs" textLength="117" x="179.75" y="38.7949">VirtualFunctionBus</text><line style="stroke: #A80036; stroke-width: 1.5;" x1="50" x2="394" y1="50.6406" y2="50.6406"/><rect fill="none" height="6" style="stroke: #C82930; stroke-width: 1.0;" width="6" x="57" y="58.6406"/><text fill="#000000" font-family="sans-serif" font-size="11" lengthAdjust="spacingAndGlyphs" textLength="190" x="69" y="64.8511">SystemComponent[] components</text><rect fill="none" height="6" style="stroke: #C82930; stroke-width: 1.0;" width="6" x="57" y="71.4453"/><text fill="#000000" font-family="sans-serif" font-size="11" lengthAdjust="spacingAndGlyphs" textLength="220" x="69" y="77.6558">IReadOnlyDummyPacket DummyPacket</text><line style="stroke: #A80036; stroke-width: 1.5;" x1="50" x2="394" y1="84.25" y2="84.25"/><ellipse cx="60" cy="95.25" fill="#84BE84" rx="3" ry="3" style="stroke: #038048; stroke-width: 1.0;"/><text fill="#000000" font-family="sans-serif" font-size="11" lengthAdjust="spacingAndGlyphs" textLength="180" x="69" y="98.4604">int getIReadOnlyDummyPacket()</text><ellipse cx="60" cy="108.0547" fill="#84BE84" rx="3" ry="3" style="stroke: #038048; stroke-width: 1.0;"/><text fill="#000000" font-family="sans-serif" font-size="11" lengthAdjust="spacingAndGlyphs" textLength="189" x="69" y="111.2651">void setIReadOnlyDummyPacket()</text><ellipse cx="60" cy="120.8594" fill="#84BE84" rx="3" ry="3" style="stroke: #038048; stroke-width: 1.0;"/><text fill="#000000" font-family="sans-serif" font-size="11" lengthAdjust="spacingAndGlyphs" textLength="320" x="69" y="124.0698">void registerComponent(SystemComponent component)</text><!--MD5=[d75aa724a06214e312f13c5436fd39bd]
class SystemComponent--><rect fill="#FEFECE" filter="url(#f1k3d776513ec9)" height="86.4141" id="SystemComponent" style="stroke: #A80036; stroke-width: 1.5;" width="355" x="275.5" y="216.6406"/><ellipse cx="390.25" cy="232.6406" fill="#A9DCDF" rx="11" ry="11" style="stroke: #A80036; stroke-width: 1.0;"/><path d="M393.1719,238.1406 L391.9844,234.375 L388.4063,234.375 L387.1875,238.1406 L384.9063,238.1406 L389.125,225.2656 L391.25,225.2656 L395.4844,238.1406 L393.1719,238.1406 Z M391.3281,232.3281 L390.3594,229.25 Q390.0313,228.2188 390.1875,228.125 Q390.3438,228.1719 390.125,228.9063 L389.0625,232.3281 L391.3281,232.3281 Z "/><text fill="#000000" font-family="sans-serif" font-size="12" font-style="italic" lengthAdjust="spacingAndGlyphs" textLength="117" x="410.75" y="236.7949">SystemComponent</text><line style="stroke: #A80036; stroke-width: 1.5;" x1="276.5" x2="629.5" y1="248.6406" y2="248.6406"/><polygon fill="none" points="286.5,254.6406,290.5,258.6406,286.5,262.6406,282.5,258.6406" style="stroke: #B38D22; stroke-width: 1.0;"/><text fill="#000000" font-family="sans-serif" font-size="11" lengthAdjust="spacingAndGlyphs" textLength="213" x="295.5" y="262.8511">VirtualFunctionBus virtualFunctionBus</text><line style="stroke: #A80036; stroke-width: 1.5;" x1="276.5" x2="629.5" y1="269.4453" y2="269.4453"/><polygon fill="#FFFF44" points="286.5,275.4453,290.5,279.4453,286.5,283.4453,282.5,279.4453" style="stroke: #B38D22; stroke-width: 1.0;"/><text fill="#000000" font-family="sans-serif" font-size="11" lengthAdjust="spacingAndGlyphs" textLength="329" x="295.5" y="283.6558">SystemComponent(VirtualFunctionBus virtualFunctionBus)</text><ellipse cx="286.5" cy="293.25" fill="#84BE84" rx="3" ry="3" style="stroke: #038048; stroke-width: 1.0;"/><text fill="#000000" font-family="sans-serif" font-size="11" font-style="italic" lengthAdjust="spacingAndGlyphs" textLength="80" x="295.5" y="296.4604">void Process()</text><!--MD5=[1ce795f0c09a4c7d81f3f7006cccb9b6]
class DummySensor--><rect fill="#FEFECE" filter="url(#f1k3d776513ec9)" height="60.8047" id="DummySensor" style="stroke: #A80036; stroke-width: 1.5;" width="189" x="534.5" y="44.1406"/><ellipse cx="580.25" cy="60.1406" fill="#ADD1B2" rx="11" ry="11" style="stroke: #A80036; stroke-width: 1.0;"/><path d="M583.7656,64.1719 L583.7656,66.2031 Q582.2813,66.8125 580.4531,66.8125 Q577.7344,66.8125 576.2813,65.0781 Q574.8281,63.3281 574.8281,60.2188 Q574.8281,57.2188 576.4063,55.4375 Q577.9844,53.6406 580.7031,53.6406 Q582.6094,53.6406 584.3438,54.5625 L583.3906,56.4688 Q581.8906,55.6875 580.7031,55.6875 Q579.0938,55.6875 578.1094,56.9063 Q577.1406,58.1094 577.1406,60.2344 Q577.1406,62.4844 578.0469,63.625 Q578.9688,64.7656 580.7031,64.7656 Q581.7344,64.7656 583.7656,64.1719 Z "/><text fill="#000000" font-family="sans-serif" font-size="12" lengthAdjust="spacingAndGlyphs" textLength="89" x="600.75" y="64.2949">DummySensor</text><line style="stroke: #A80036; stroke-width: 1.5;" x1="535.5" x2="722.5" y1="76.1406" y2="76.1406"/><rect fill="none" height="6" style="stroke: #C82930; stroke-width: 1.0;" width="6" x="542.5" y="84.1406"/><text fill="#000000" font-family="sans-serif" font-size="11" lengthAdjust="spacingAndGlyphs" textLength="163" x="554.5" y="90.3511">DummyPacket dummyPacket</text><line style="stroke: #A80036; stroke-width: 1.5;" x1="535.5" x2="722.5" y1="96.9453" y2="96.9453"/><!--MD5=[d8616463991a89019b28d6ef528365d6]
class DummyPacket--><rect fill="#FEFECE" filter="url(#f1k3d776513ec9)" height="124.8281" id="DummyPacket" style="stroke: #A80036; stroke-width: 1.5;" width="135" x="665.5" y="197.1406"/><ellipse cx="687.25" cy="213.1406" fill="#ADD1B2" rx="11" ry="11" style="stroke: #A80036; stroke-width: 1.0;"/><path d="M690.7656,217.1719 L690.7656,219.2031 Q689.2813,219.8125 687.4531,219.8125 Q684.7344,219.8125 683.2813,218.0781 Q681.8281,216.3281 681.8281,213.2188 Q681.8281,210.2188 683.4063,208.4375 Q684.9844,206.6406 687.7031,206.6406 Q689.6094,206.6406 691.3438,207.5625 L690.3906,209.4688 Q688.8906,208.6875 687.7031,208.6875 Q686.0938,208.6875 685.1094,209.9063 Q684.1406,211.1094 684.1406,213.2344 Q684.1406,215.4844 685.0469,216.625 Q685.9688,217.7656 687.7031,217.7656 Q688.7344,217.7656 690.7656,217.1719 Z "/><text fill="#000000" font-family="sans-serif" font-size="12" lengthAdjust="spacingAndGlyphs" textLength="88" x="702.75" y="217.2949">DummyPacket</text><line style="stroke: #A80036; stroke-width: 1.5;" x1="666.5" x2="799.5" y1="229.1406" y2="229.1406"/><rect fill="none" height="6" style="stroke: #C82930; stroke-width: 1.0;" width="6" x="673.5" y="237.1406"/><text fill="#000000" font-family="sans-serif" font-size="11" lengthAdjust="spacingAndGlyphs" textLength="73" x="685.5" y="243.3511">int distanceX</text><rect fill="none" height="6" style="stroke: #C82930; stroke-width: 1.0;" width="6" x="673.5" y="249.9453"/><text fill="#000000" font-family="sans-serif" font-size="11" lengthAdjust="spacingAndGlyphs" textLength="73" x="685.5" y="256.1558">int distanceY</text><line style="stroke: #A80036; stroke-width: 1.5;" x1="666.5" x2="799.5" y1="262.75" y2="262.75"/><ellipse cx="676.5" cy="273.75" fill="#84BE84" rx="3" ry="3" style="stroke: #038048; stroke-width: 1.0;"/><text fill="#000000" font-family="sans-serif" font-size="11" lengthAdjust="spacingAndGlyphs" textLength="109" x="685.5" y="276.9604">void setDistanceX()</text><ellipse cx="676.5" cy="286.5547" fill="#84BE84" rx="3" ry="3" style="stroke: #038048; stroke-width: 1.0;"/><text fill="#000000" font-family="sans-serif" font-size="11" lengthAdjust="spacingAndGlyphs" textLength="100" x="685.5" y="289.7651">int getDistanceX()</text><ellipse cx="676.5" cy="299.3594" fill="#84BE84" rx="3" ry="3" style="stroke: #038048; stroke-width: 1.0;"/><text fill="#000000" font-family="sans-serif" font-size="11" lengthAdjust="spacingAndGlyphs" textLength="109" x="685.5" y="302.5698">void setDistanceY()</text><ellipse cx="676.5" cy="312.1641" fill="#84BE84" rx="3" ry="3" style="stroke: #038048; stroke-width: 1.0;"/><text fill="#000000" font-family="sans-serif" font-size="11" lengthAdjust="spacingAndGlyphs" textLength="100" x="685.5" y="315.3745">int getDistanceY()</text><!--MD5=[821820ffe0c4ca856114a9e9dbe34f76]
class IReadOnlyDummyPacket--><rect fill="#FEFECE" filter="url(#f1k3d776513ec9)" height="73.6094" id="IReadOnlyDummyPacket" style="stroke: #A80036; stroke-width: 1.5;" width="182" x="386" y="388.6406"/><ellipse cx="401" cy="404.6406" fill="#B4A7E5" rx="11" ry="11" style="stroke: #A80036; stroke-width: 1.0;"/><path d="M404.5,411.1406 L397.375,411.1406 L397.375,409.4531 L399.8125,409.2813 L399.8125,400.1719 L397.375,400.0156 L397.375,398.3125 L404.5,398.3125 L404.5,400.0156 L402.0625,400.1719 L402.0625,409.2813 L404.5,409.4531 L404.5,411.1406 Z "/><text fill="#000000" font-family="sans-serif" font-size="12" font-style="italic" lengthAdjust="spacingAndGlyphs" textLength="150" x="415" y="408.7949">IReadOnlyDummyPacket</text><line style="stroke: #A80036; stroke-width: 1.5;" x1="387" x2="567" y1="420.6406" y2="420.6406"/><line style="stroke: #A80036; stroke-width: 1.5;" x1="387" x2="567" y1="428.6406" y2="428.6406"/><ellipse cx="397" cy="439.6406" fill="#84BE84" rx="3" ry="3" style="stroke: #038048; stroke-width: 1.0;"/><text fill="#000000" font-family="sans-serif" font-size="11" lengthAdjust="spacingAndGlyphs" textLength="100" x="406" y="442.8511">int getDistanceX()</text><ellipse cx="397" cy="452.4453" fill="#84BE84" rx="3" ry="3" style="stroke: #038048; stroke-width: 1.0;"/><text fill="#000000" font-family="sans-serif" font-size="11" lengthAdjust="spacingAndGlyphs" textLength="100" x="406" y="455.6558">int getDistanceY()</text><!--MD5=[a978ad6bb3d6e122ea9b06863548ba02]
reverse link DummySensor to SystemComponent--><path d="M586.43,119.9006 C558.18,149.2806 521.31,187.6206 493.49,216.5406 " fill="none" id="DummySensor&lt;-SystemComponent" style="stroke: #A80036; stroke-width: 1.0;"/><polygon fill="none" points="581.42,115.0106,600.33,105.4506,591.51,124.7206,581.42,115.0106" style="stroke: #A80036; stroke-width: 1.0;"/><!--MD5=[2e98031b0ea26bfab61a6e72418e37f0]
reverse link DummySensor to DummyPacket--><path d="M652.4,116.8206 C665.83,140.4506 682.95,170.5706 697.96,196.9806 " fill="none" id="DummySensor&lt;-DummyPacket" style="stroke: #A80036; stroke-width: 1.0;"/><polygon fill="#A80036" points="645.94,105.4506,645.4301,112.6437,651.8738,115.8809,652.3836,108.6878,645.94,105.4506" style="stroke: #A80036; stroke-width: 1.0;"/><!--MD5=[9acbab72ff6094cefe5e12965dfb6a09]
reverse link DummyPacket to IReadOnlyDummyPacket--><path d="M660.79,319.6806 C656.51,322.7806 652.23,325.7906 648,328.6406 C615.96,350.2406 578.72,371.5606 547.18,388.6006 " fill="none" id="DummyPacket&lt;-IReadOnlyDummyPacket" style="stroke: #A80036; stroke-width: 1.0;"/><polygon fill="#A80036" points="665.07,316.5606,655.443,318.6395,661.0325,319.51,660.162,325.0995,665.07,316.5606" style="stroke: #A80036; stroke-width: 1.0;"/><!--MD5=[c1ce0c093f97d0a311b3a61316b5a841]
reverse link VirtualFunctionBus to GameBase--><path d="M169.9,147.3206 C159.58,161.5306 148.77,176.4106 138.53,190.4906 " fill="none" id="VirtualFunctionBus&lt;-GameBase" style="stroke: #A80036; stroke-width: 1.0;"/><polygon fill="none" points="164.31,143.1106,181.73,131.0406,175.64,151.3406,164.31,143.1106" style="stroke: #A80036; stroke-width: 1.0;"/><!--MD5=[1f0c8481144b4034f2fbf28840af8550]
reverse link VirtualFunctionBus to SystemComponent--><path d="M301.95,138.9806 C334.26,164.5806 370.69,193.4306 399.67,216.3906 " fill="none" id="VirtualFunctionBus&lt;-SystemComponent" style="stroke: #A80036; stroke-width: 1.0;"/><polygon fill="#A80036" points="291.62,130.7906,293.8383,137.6521,301.0251,138.2435,298.8068,131.382,291.62,130.7906" style="stroke: #A80036; stroke-width: 1.0;"/><text fill="#000000" font-family="sans-serif" font-size="13" lengthAdjust="spacingAndGlyphs" textLength="36" x="352.7476" y="205.6649">many</text><!--MD5=[6b8188878c185e85e965bc07c9da7c74]
reverse link VirtualFunctionBus to IReadOnlyDummyPacket--><path d="M214.64,143.9906 C212.4,199.2006 218.09,276.0906 258,328.6406 C288.82,369.2206 340.43,392.9606 385.82,406.6706 " fill="none" id="VirtualFunctionBus&lt;-IReadOnlyDummyPacket" style="stroke: #A80036; stroke-width: 1.0;"/><polygon fill="#A80036" points="215.35,130.8006,211.0328,136.5766,214.7041,142.7832,219.0212,137.0072,215.35,130.8006" style="stroke: #A80036; stroke-width: 1.0;"/><text fill="#000000" font-family="sans-serif" font-size="13" lengthAdjust="spacingAndGlyphs" textLength="8" x="369.9379" y="401.5671">1</text><!--MD5=[e823c47e690a6fdc068d54392035c1e5]
@startuml
abstract class GameBase {
    + int TicksPerSecond
    + long CurrentTick
    - DispatcherTimer _timer

    void DoTick()
    # {abstract} void Tick()
    + void Start()
    + void Stop()
}

class VirtualFunctionBus {
    - SystemComponent[] components
    - IReadOnlyDummyPacket DummyPacket
    + int getIReadOnlyDummyPacket()
    + void setIReadOnlyDummyPacket()
    + void registerComponent(SystemComponent component)
}

abstract class SystemComponent {
    # VirtualFunctionBus virtualFunctionBus
    # SystemComponent(VirtualFunctionBus virtualFunctionBus)
    + {abstract} void Process()
}

class DummySensor {
   - DummyPacket dummyPacket
}

class DummyPacket {
    - int distanceX
    - int distanceY
    + void setDistanceX()
    + int getDistanceX()
    + void setDistanceY()
    + int getDistanceY()
}

interface IReadOnlyDummyPacket {
    + int getDistanceX()
    + int getDistanceY()
}

DummySensor <|- - SystemComponent
DummySensor *- - DummyPacket
DummyPacket <- - IReadOnlyDummyPacket

VirtualFunctionBus <|- - GameBase
VirtualFunctionBus *- - "many" SystemComponent
VirtualFunctionBus *- - "1" IReadOnlyDummyPacket

header
DummySensor class diagram
endheader
@enduml

PlantUML version 1.2020.15(Sun Jun 28 13:39:45 CEST 2020)
(GPL source distribution)
Java Runtime: OpenJDK Runtime Environment
JVM: OpenJDK 64-Bit Server VM
Default Encoding: UTF-8
Language: hu
Country: HU
--></g></svg>